<svg width="21" height="20" viewBox="0 0 21 20" fill="none" xmlns="http://www.w3.org/2000/svg">
<g id="basic-link-02-2.svg">
<path id="Vector" d="M7.55417 17.1125C5.86903 17.1125 4.34983 16.0974 3.70485 14.5406C3.05987 12.9838 3.41611 11.1918 4.60751 10L6.37585 8.23168L7.55417 9.41002L5.78667 11.1775C5.15505 11.8091 4.90839 12.7297 5.13957 13.5925C5.37075 14.4553 6.04469 15.1293 6.90749 15.3605C7.77029 15.5916 8.6909 15.345 9.32252 14.7134L11.09 12.9459L12.2684 14.125L10.5009 15.8925C9.72091 16.6763 8.65989 17.1156 7.55417 17.1125ZM8.14335 13.535L6.96501 12.3567L12.8575 6.46418L14.0359 7.64252L8.14335 13.535ZM14.6259 11.7675L13.4467 10.5892L15.2142 8.82168C15.8544 8.19196 16.1077 7.26724 15.8777 6.39916C15.6478 5.5311 14.9699 4.85306 14.1019 4.62288C13.2338 4.39272 12.3091 4.64578 11.6792 5.28586L9.91085 7.05336L8.73251 5.87502L10.5009 4.10668C12.1301 2.49166 14.7583 2.49741 16.3805 4.11955C18.0026 5.74169 18.0084 8.36994 16.3934 9.99918L14.6259 11.7675Z" fill="#79819A"/>
</g>
</svg>
