<svg width="21" height="20" viewBox="0 0 21 20" fill="none" xmlns="http://www.w3.org/2000/svg">
<g id="basic-phone.svg">
<path id="Vector" d="M16.3313 16.6667C9.2216 16.6768 3.82578 11.2163 3.83338 4.16879C3.83338 3.70855 4.20648 3.33337 4.66672 3.33337H6.86618C7.27916 3.33337 7.62998 3.63681 7.69062 4.04531C7.83596 5.02437 8.12102 5.97751 8.53712 6.87561L8.62274 7.06045C8.74182 7.31745 8.6611 7.62281 8.4306 7.78743C7.74946 8.27385 7.48914 9.25299 8.01978 10.017C8.68568 10.9757 9.52508 11.815 10.4836 12.4806C11.2476 13.0111 12.2265 12.7508 12.713 12.0697C12.8777 11.8391 13.1832 11.7584 13.4404 11.8775L13.6244 11.9627C14.5225 12.3788 15.4757 12.6639 16.4549 12.8092C16.8634 12.8698 17.1667 13.2206 17.1667 13.6336V15.8334C17.1667 16.2936 16.7915 16.6667 16.3313 16.6667Z" fill="#79819A"/>
</g>
</svg>
