<svg width="31" height="32" viewBox="0 0 31 32" fill="none" xmlns="http://www.w3.org/2000/svg">
<g id="social-icon-50.svg" clip-path="url(#clip0_1_114)">
<path id="Vector" d="M30.5588 16C30.5588 7.68323 23.8167 0.941162 15.5 0.941162C7.18323 0.941162 0.441162 7.68323 0.441162 16C0.441162 24.3167 7.18323 31.0588 15.5 31.0588C23.8167 31.0588 30.5588 24.3167 30.5588 16Z" fill="#EA4C89"/>
<path id="Vector_2" d="M15.4999 23.843C11.1683 23.843 7.6568 20.3317 7.6568 15.9999C7.6568 11.6683 11.1683 8.1568 15.4999 8.1568C19.8317 8.1568 23.343 11.6683 23.343 15.9999C23.3383 20.3296 19.8296 23.8383 15.4999 23.843ZM11.6725 21.1333L11.6686 21.1411C13.4592 22.4826 15.821 22.7898 17.8952 21.9512C17.5979 20.3524 17.1572 18.7834 16.5784 17.2635C15.2489 17.727 14.0334 18.4684 13.0129 19.4383C12.5099 19.9145 12.0745 20.4574 11.7188 21.0517L11.7133 21.0603V21.0524L11.6992 21.0799L11.6897 21.0957L11.6843 21.1059L11.6725 21.1333ZM19.2482 16.8196C18.862 16.8201 18.4763 16.8463 18.0937 16.898C18.5934 18.2945 18.9867 19.7269 19.2701 21.1827C20.603 20.2219 21.509 18.7794 21.7957 17.1615C20.9658 16.9326 20.1089 16.8168 19.2482 16.8172V16.8196ZM9.08191 15.9646V16.0086C9.08334 17.5196 9.618 18.9816 10.5917 20.1372C11.8531 18.1886 13.719 16.7076 15.9031 15.9215L15.9964 15.8949C15.8576 15.5882 15.7274 15.3144 15.5972 15.0588C13.5046 15.6455 11.343 15.9502 9.16974 15.9646H9.08191ZM19.0027 15.4894C19.9758 15.4929 20.9469 15.5816 21.9047 15.7544C21.8548 14.4277 21.3906 13.1499 20.5776 12.1003C19.6287 13.1615 18.4478 13.9892 17.1266 14.5192C17.267 14.8117 17.3886 15.0862 17.4913 15.3301C17.5156 15.3882 17.536 15.4384 17.5549 15.487L17.587 15.5654C18.0571 15.5133 18.5297 15.4879 19.0027 15.4894ZM12.6584 10.2564C10.9527 11.0983 9.70872 12.6537 9.2623 14.5027C11.09 14.4744 12.909 14.2435 14.6858 13.8141H14.696H14.7078L14.7156 13.8039L14.758 13.7937H14.7627L14.7941 13.7874H14.8011H14.8066L14.8231 13.7827L14.8544 13.7749L14.8725 13.767L14.8897 13.7623H14.8976H14.9054C13.8599 11.9215 12.7784 10.4211 12.6584 10.2564ZM15.4999 9.59913C15.0706 9.59808 14.6422 9.63879 14.2207 9.72073C15.0424 10.8592 15.7964 12.0451 16.4788 13.2721C17.7008 12.8368 18.7907 12.0953 19.6442 11.1184C18.4856 10.1384 17.0174 9.60026 15.4999 9.59913Z" fill="white"/>
</g>
<defs>
<clipPath id="clip0_1_114">
<rect width="30.1176" height="32" fill="white" transform="translate(0.441162)"/>
</clipPath>
</defs>
</svg>
