<svg width="31" height="32" viewBox="0 0 31 32" fill="none" xmlns="http://www.w3.org/2000/svg">
<g id="social-icon-3.svg" clip-path="url(#clip0_1_100)">
<path id="Vector" d="M30.5588 16C30.5588 7.68323 23.8167 0.941162 15.5 0.941162C7.18323 0.941162 0.441162 7.68323 0.441162 16C0.441162 24.3167 7.18323 31.0588 15.5 31.0588C23.8167 31.0588 30.5588 24.3167 30.5588 16Z" fill="url(#paint0_radial_1_100)"/>
<path id="Vector_2" d="M30.5588 16C30.5588 7.68323 23.8167 0.941162 15.5 0.941162C7.18323 0.941162 0.441162 7.68323 0.441162 16C0.441162 24.3167 7.18323 31.0588 15.5 31.0588C23.8167 31.0588 30.5588 24.3167 30.5588 16Z" fill="url(#paint1_radial_1_100)" fill-opacity="0.2"/>
<path id="Vector_3" d="M12.3635 16.0004C12.3635 14.2677 13.7677 12.8628 15.5003 12.8628C17.233 12.8628 18.638 14.2677 18.638 16.0004C18.638 17.7331 17.233 19.1381 15.5003 19.1381C13.7677 19.1381 12.3635 17.7331 12.3635 16.0004ZM10.6673 16.0004C10.6673 18.6697 12.831 20.8333 15.5003 20.8333C18.1696 20.8333 20.3333 18.6697 20.3333 16.0004C20.3333 13.3311 18.1696 11.1674 15.5003 11.1674C12.831 11.1674 10.6673 13.331 10.6673 16.0004ZM19.3953 10.9757C19.3953 11.1991 19.4614 11.4175 19.5854 11.6033C19.7095 11.7891 19.8858 11.9339 20.0921 12.0195C20.2985 12.1051 20.5255 12.1275 20.7448 12.084C20.9639 12.0405 21.1651 11.9331 21.323 11.7752C21.4811 11.6173 21.5888 11.4161 21.6325 11.197C21.6762 10.9779 21.6537 10.7508 21.5685 10.5444C21.483 10.338 21.3383 10.1615 21.1527 10.0373C20.9669 9.91315 20.7485 9.84684 20.5253 9.84674C20.226 9.84687 19.9382 9.96586 19.7264 10.1775C19.5146 10.3892 19.3955 10.6763 19.3953 10.9757ZM11.6978 23.6618C10.7802 23.62 10.2814 23.4671 9.94996 23.338C9.51052 23.1669 9.197 22.9632 8.86734 22.634C8.53768 22.3048 8.33364 21.9916 8.1633 21.552C8.0341 21.2207 7.88125 20.7219 7.83954 19.8043C7.79391 18.8121 7.7848 18.514 7.7848 16.0005C7.7848 13.4871 7.79466 13.1899 7.83954 12.1969C7.88133 11.2793 8.0353 10.7813 8.1633 10.449C8.33439 10.0096 8.53813 9.69608 8.86734 9.36642C9.19654 9.03677 9.50977 8.83272 9.94996 8.66238C10.2813 8.53318 10.7802 8.38033 11.6978 8.33862C12.6899 8.29299 12.988 8.28388 15.5003 8.28388C18.0127 8.28388 18.311 8.29359 19.304 8.33877C20.2217 8.38056 20.7195 8.53453 21.0518 8.66253C21.4913 8.83287 21.8049 9.03737 22.1345 9.36657C22.4641 9.69578 22.6674 10.0098 22.8385 10.4492C22.9676 10.7805 23.1205 11.2794 23.1623 12.1971C23.2078 13.19 23.217 13.4872 23.217 16.0007C23.217 18.5142 23.2078 18.8114 23.1623 19.8043C23.1205 20.7219 22.9669 21.2207 22.8385 21.5522C22.6674 21.9916 22.4637 22.3052 22.1345 22.634C21.8053 22.963 21.4913 23.1671 21.0518 23.3382C20.7205 23.4673 20.2217 23.6202 19.304 23.662C18.3119 23.7075 18.0138 23.7165 15.5003 23.7165C12.9869 23.7165 12.6896 23.7073 11.6978 23.6618ZM11.6199 6.64525C10.6179 6.69088 9.93324 6.84977 9.33531 7.08243C8.71645 7.32271 8.19184 7.64505 7.668 8.16806C7.14416 8.69109 6.82265 9.21576 6.58237 9.83537C6.34971 10.4337 6.19082 11.118 6.14519 12.12C6.09881 13.1235 6.0882 13.4444 6.0882 16.0004C6.0882 18.5564 6.09881 18.8772 6.14519 19.8809C6.19082 20.8828 6.34971 21.5671 6.58237 22.1655C6.82265 22.7842 7.14423 23.31 7.668 23.8327C8.19176 24.3556 8.7157 24.6775 9.33531 24.9184C9.93437 25.1511 10.6179 25.31 11.6199 25.3555C12.624 25.4012 12.9443 25.4125 15.5003 25.4125C18.0564 25.4125 18.3772 25.402 19.3808 25.3555C20.3828 25.31 21.067 25.1511 21.6654 24.9184C22.2842 24.6775 22.8088 24.3558 23.3326 23.8327C23.8565 23.3098 24.1774 22.7842 24.4184 22.1655C24.651 21.5671 24.8106 20.8828 24.8554 19.8809C24.9012 18.8764 24.9117 18.5564 24.9117 16.0004C24.9117 13.4444 24.9012 13.1235 24.8554 12.12C24.8099 11.1179 24.651 10.4333 24.4184 9.83537C24.1774 9.21651 23.8557 8.69192 23.3326 8.16806C22.8097 7.64422 22.2841 7.32271 21.6662 7.08243C21.067 6.84977 20.3828 6.69013 19.3816 6.64525C18.3778 6.5994 18.0571 6.58826 15.5015 6.58826C12.9458 6.58826 12.624 6.59887 11.6199 6.64525Z" fill="white"/>
</g>
<defs>
<radialGradient id="paint0_radial_1_100" cx="0" cy="0" r="1" gradientUnits="userSpaceOnUse" gradientTransform="translate(2.39034 30.399) scale(38.2383)">
<stop offset="0.09" stop-color="#FA8F21"/>
<stop offset="0.78" stop-color="#D82D7E"/>
</radialGradient>
<radialGradient id="paint1_radial_1_100" cx="0" cy="0" r="1" gradientUnits="userSpaceOnUse" gradientTransform="translate(15.5 30.1176) scale(23.5294)">
<stop offset="0.713542" stop-color="#8C3AAA" stop-opacity="0"/>
<stop offset="1" stop-color="#8C3AAA"/>
</radialGradient>
<clipPath id="clip0_1_100">
<rect width="30.1176" height="32" fill="white" transform="translate(0.441162)"/>
</clipPath>
</defs>
</svg>
