<svg width="17" height="16" viewBox="0 0 17 16" fill="none" xmlns="http://www.w3.org/2000/svg">
<g id="icon-1.svg">
<path id="Vector" d="M6.88742 1.45794C4.42826 1.9379 2.44657 3.91462 1.96166 6.36636C1.04627 10.9927 5.21994 14.4415 8.36442 13.9541C9.38372 13.7958 9.88346 12.6033 9.41588 11.6854C8.84438 10.5623 9.6608 9.25104 10.9226 9.25104H12.8943C13.78 9.25104 14.4975 8.51872 14.5 7.63552C14.4876 3.7365 10.9399 0.668735 6.88742 1.45794ZM4.20806 9.25104C3.77016 9.25104 3.41638 8.89726 3.41638 8.45936C3.41638 8.02146 3.77016 7.66768 4.20806 7.66768C4.64596 7.66768 4.99976 8.02146 4.99976 8.45936C4.99976 8.89726 4.64596 9.25104 4.20806 9.25104ZM4.99976 6.08432C4.56186 6.08432 4.20806 5.73054 4.20806 5.29264C4.20806 4.85474 4.56186 4.50096 4.99976 4.50096C5.43766 4.50096 5.79144 4.85474 5.79144 5.29264C5.79144 5.73054 5.43766 6.08432 4.99976 6.08432ZM8.1665 4.50096C7.7286 4.50096 7.3748 4.14718 7.3748 3.70928C7.3748 3.27138 7.7286 2.9176 8.1665 2.9176C8.6044 2.9176 8.95818 3.27138 8.95818 3.70928C8.95818 4.14718 8.6044 4.50096 8.1665 4.50096ZM11.3332 6.08432C10.8953 6.08432 10.5416 5.73054 10.5416 5.29264C10.5416 4.85474 10.8953 4.50096 11.3332 4.50096C11.7711 4.50096 12.1249 4.85474 12.1249 5.29264C12.1249 5.73054 11.7711 6.08432 11.3332 6.08432Z" fill="#9251F7"/>
</g>
</svg>
