<svg width="21" height="20" viewBox="0 0 21 20" fill="none" xmlns="http://www.w3.org/2000/svg">
<g id="basic-location-4.svg">
<path id="Vector" d="M10.5 17.5C9.44741 16.6022 8.47179 15.618 7.58331 14.5575C6.24997 12.965 4.66663 10.5934 4.66663 8.33338C4.66545 5.973 6.08685 3.84454 8.26753 2.9412C10.4482 2.03788 12.9583 2.53774 14.6266 4.20754C15.7237 5.29972 16.3382 6.78536 16.3333 8.33338C16.3333 10.5934 14.75 12.965 13.4166 14.5575C12.5281 15.618 11.5525 16.6022 10.5 17.5ZM10.5 5.83338C9.60681 5.83338 8.78149 6.30988 8.33491 7.08338C7.88833 7.85688 7.88833 8.80988 8.33491 9.58338C8.78149 10.3569 9.60681 10.8334 10.5 10.8334C11.8807 10.8334 13 9.71408 13 8.33338C13 6.95266 11.8807 5.83338 10.5 5.83338Z" fill="#79819A"/>
</g>
</svg>
