<svg width="63" height="62" viewBox="0 0 63 62" fill="none" xmlns="http://www.w3.org/2000/svg">
<g id="social-icon.svg" clip-path="url(#clip0_1_139)">
<g id="Group" filter="url(#filter0_d_1_139)">
<path id="Vector" d="M47.0152 28.1212C47.0152 19.5524 40.0688 12.6061 31.5 12.6061C22.9312 12.6061 15.9849 19.5524 15.9849 28.1212C15.9849 36.69 22.9312 43.6364 31.5 43.6364C40.0688 43.6364 47.0152 36.69 47.0152 28.1212Z" fill="#0077B5"/>
<path id="Vector_2" d="M32.3082 35.394H29.0758V25.697H32.3082V27.3131C32.997 26.4367 34.042 25.914 35.1566 25.8884C37.1611 25.8997 38.7786 27.5309 38.7727 29.5354V35.394H35.5404V29.9394C35.4112 29.0364 34.6368 28.3666 33.7247 28.3685C33.3258 28.3811 32.9491 28.5559 32.6819 28.8522C32.4144 29.1487 32.2795 29.5413 32.3082 29.9394V35.394ZM27.4597 35.394H24.2273V25.697H27.4597V35.394ZM25.8434 24.0809C24.9509 24.0809 24.2273 23.3573 24.2273 22.4646C24.2273 21.5721 24.9509 20.8485 25.8434 20.8485C26.7361 20.8485 27.4597 21.5721 27.4597 22.4646C27.4597 22.8932 27.2894 23.3044 26.9863 23.6075C26.6831 23.9106 26.272 24.0809 25.8434 24.0809Z" fill="white"/>
</g>
</g>
<defs>
<filter id="filter0_d_1_139" x="0.469712" y="0.969716" width="62.0606" height="62.0606" filterUnits="userSpaceOnUse" color-interpolation-filters="sRGB">
<feFlood flood-opacity="0" result="BackgroundImageFix"/>
<feColorMatrix in="SourceAlpha" type="matrix" values="0 0 0 0 0 0 0 0 0 0 0 0 0 0 0 0 0 0 127 0" result="hardAlpha"/>
<feOffset dy="3.87879"/>
<feGaussianBlur stdDeviation="7.75758"/>
<feColorMatrix type="matrix" values="0 0 0 0 0 0 0 0 0 0 0 0 0 0 0 0 0 0 0.06 0"/>
<feBlend mode="normal" in2="BackgroundImageFix" result="effect1_dropShadow_1_139"/>
<feBlend mode="normal" in="SourceGraphic" in2="effect1_dropShadow_1_139" result="shape"/>
</filter>
<clipPath id="clip0_1_139">
<rect width="62.0606" height="64" fill="white" transform="translate(0.469727)"/>
</clipPath>
</defs>
</svg>
