<svg width="33" height="24" viewBox="0 0 33 24" fill="none" xmlns="http://www.w3.org/2000/svg">
<g id="flag-icon.svg" clip-path="url(#clip0_1_228)">
<g id="Clip path group">
<mask id="mask0_1_228" style="mask-type:luminance" maskUnits="userSpaceOnUse" x="0" y="0" width="33" height="24">
<g id="clip0_402_5350">
<path id="Vector" d="M32.5 0H0.5V24H32.5V0Z" fill="white"/>
</g>
</mask>
<g mask="url(#mask0_1_228)">
<g id="Group">
<g id="Mask group">
<mask id="mask1_1_228" style="mask-type:alpha" maskUnits="userSpaceOnUse" x="0" y="0" width="33" height="24">
<g id="Group_2">
<path id="Vector_2" d="M29.4524 0H3.54762C1.86447 0 0.5 1.43269 0.5 3.2V20.8C0.5 22.5674 1.86447 24 3.54762 24H29.4524C31.1356 24 32.5 22.5674 32.5 20.8V3.2C32.5 1.43269 31.1356 0 29.4524 0Z" fill="white"/>
</g>
</mask>
<g mask="url(#mask1_1_228)">
<g id="Group_3">
<path id="Vector_3" d="M29.4524 0H3.54762C1.86447 0 0.5 1.43269 0.5 3.2V20.8C0.5 22.5674 1.86447 24 3.54762 24H29.4524C31.1356 24 32.5 22.5674 32.5 20.8V3.2C32.5 1.43269 31.1356 0 29.4524 0Z" fill="#CD0B20"/>
<path id="Vector_4" fill-rule="evenodd" clip-rule="evenodd" d="M0.5 6.40002H32.5V17.6H0.5V6.40002Z" fill="#FFCB00"/>
<path id="Vector_5" fill-rule="evenodd" clip-rule="evenodd" d="M14.2143 9.95516V13.9872C14.2143 15.1072 13.1903 16.0032 11.9285 16.0032H8.88092C7.62226 16 6.59521 15.0992 6.59521 13.984V9.95196C6.59521 9.03676 7.27787 8.27196 8.21653 8.02396C8.49997 7.19196 9.3716 7.93756 10.4047 7.93756C11.444 7.93756 12.3095 7.19676 12.5929 8.02556C13.5285 8.27996 14.2143 9.04636 14.2143 9.95516Z" fill="#C8B47C"/>
<path id="Vector_6" fill-rule="evenodd" clip-rule="evenodd" d="M14.2143 11.2001H15.7381V16.0001H14.2143V11.2001ZM5.07141 11.2001H6.59521V16.0001H5.07141V11.2001Z" fill="#B5B5B5"/>
<path id="Vector_7" fill-rule="evenodd" clip-rule="evenodd" d="M14.2143 14.4H15.7381V16H14.2143V14.4ZM5.07141 14.4H6.59521V16H5.07141V14.4Z" fill="#165C96"/>
<path id="Vector_8" fill-rule="evenodd" clip-rule="evenodd" d="M14.2143 9.59998H15.7381V11.2H14.2143V9.59998ZM5.07141 9.59998H6.59521V11.2H5.07141V9.59998Z" fill="#A0790A"/>
<path id="Vector_9" fill-rule="evenodd" clip-rule="evenodd" d="M8.11902 9.59998H9.64282V12H8.11902V9.59998ZM11.1666 12.8H12.6904V15.2H11.1666V12.8Z" fill="#D20636"/>
<path id="Vector_10" fill-rule="evenodd" clip-rule="evenodd" d="M11.1666 9.59998H12.6904V12H11.1666V9.59998Z" fill="#A18793"/>
<path id="Vector_11" fill-rule="evenodd" clip-rule="evenodd" d="M8.11902 12.7999H9.64282V15.1999H8.11902V12.7999Z" fill="#FFE100"/>
<path id="Vector_12" fill-rule="evenodd" clip-rule="evenodd" d="M9.64282 9.6L8.11902 8H12.6904L11.1666 9.6H9.64282Z" fill="#B6161A"/>
<path id="Vector_13" fill-rule="evenodd" clip-rule="evenodd" d="M9.64282 6.40002H11.1666V8.00002H9.64282V6.40002Z" fill="#AC9300"/>
</g>
</g>
</g>
</g>
</g>
</g>
</g>
<defs>
<clipPath id="clip0_1_228">
<rect width="32" height="24" fill="white" transform="translate(0.5)"/>
</clipPath>
</defs>
</svg>
