<svg width="12" height="12" viewBox="0 0 12 12" fill="none" xmlns="http://www.w3.org/2000/svg">
<g id="basic-location.svg">
<path id="Vector" d="M5.91998 9.85717C5.37866 9.39545 4.87693 8.88925 4.41998 8.34389C3.73427 7.52489 2.91998 6.30517 2.91998 5.14289C2.91938 3.92898 3.65037 2.83435 4.77187 2.36977C5.89336 1.9052 7.1843 2.16228 8.04227 3.02103C8.60647 3.58272 8.92252 4.34677 8.92 5.14289C8.92 6.30517 8.1057 7.52489 7.41998 8.34389C6.96304 8.88925 6.4613 9.39545 5.91998 9.85717ZM5.91998 3.85717C5.46064 3.85717 5.0362 4.10223 4.80652 4.50003C4.57686 4.89783 4.57686 5.38794 4.80652 5.78574C5.0362 6.18354 5.46064 6.4286 5.91998 6.4286C6.63006 6.4286 7.2057 5.85298 7.2057 5.14289C7.2057 4.43281 6.63006 3.85717 5.91998 3.85717Z" fill="#79819A"/>
</g>
</svg>
