<svg width="17" height="16" viewBox="0 0 17 16" fill="none" xmlns="http://www.w3.org/2000/svg">
<g id="basic-link-02.svg">
<path id="Vector" d="M6.29064 13.3343C5.02678 13.3343 3.88738 12.573 3.40364 11.4054C2.9199 10.2378 3.1871 8.89376 4.08064 7.99996L5.40688 6.6737L6.29064 7.55746L4.96502 8.88308C4.4913 9.35678 4.3063 10.0472 4.47968 10.6943C4.65308 11.3414 5.15852 11.8469 5.80562 12.0203C6.45272 12.1937 7.14318 12.0087 7.61688 11.535L8.94252 10.2093L9.82626 11.0937L8.50064 12.4193C7.91568 13.0072 7.11992 13.3366 6.29064 13.3343ZM6.73252 10.6512L5.84876 9.76746L10.2681 5.34808L11.1519 6.23182L6.73252 10.6512ZM11.5944 9.32558L10.71 8.44182L12.0356 7.1162C12.5158 6.6439 12.7058 5.95036 12.5333 5.29932C12.3608 4.64826 11.8524 4.13974 11.2014 3.9671C10.5504 3.79448 9.8568 3.98428 9.38438 4.46432L8.05814 5.78996L7.17438 4.9062L8.50064 3.57996C9.72256 2.36868 11.6937 2.373 12.9104 3.5896C14.127 4.80622 14.1313 6.7774 12.92 7.99932L11.5944 9.32558Z" fill="#516CF7"/>
</g>
</svg>
