<svg width="17" height="16" viewBox="0 0 17 16" fill="none" xmlns="http://www.w3.org/2000/svg">
<g id="brand-figma.svg">
<g id="Clip path group">
<mask id="mask0_1_295" style="mask-type:luminance" maskUnits="userSpaceOnUse" x="1" y="0" width="15" height="16">
<g id="clip0_402_4338">
<path id="Vector" d="M16 0.5H1V15.5H16V0.5Z" fill="white"/>
</g>
</mask>
<g mask="url(#mask0_1_295)">
<g id="Group">
<path id="Vector_2" d="M6.59064 14.2501C5.55008 14.2582 4.61796 13.6079 4.26628 12.6285C3.9146 11.6492 4.22012 10.5545 5.02814 9.8988C4.45502 9.43494 4.12204 8.73704 4.12204 7.99974C4.12204 7.26242 4.45502 6.56452 5.02814 6.10066C4.21986 5.44518 3.91416 4.35044 4.2659 3.37102C4.61766 2.3916 5.55002 1.74149 6.59064 1.74996H10.4094C11.45 1.74149 12.3824 2.3916 12.7341 3.37102C13.0859 4.35044 12.7802 5.44518 11.9719 6.10066C12.7799 6.75636 13.0855 7.85104 12.7338 8.83042C12.3821 9.80978 11.45 10.46 10.4094 10.4519C9.92876 10.4525 9.45844 10.3126 9.05628 10.0494V11.7994C9.05042 13.1563 7.94752 14.2525 6.59064 14.2501ZM6.5769 10.4525C5.8366 10.4642 5.24484 11.0718 5.2526 11.8121C5.26036 12.5525 5.86474 13.1474 6.60512 13.1436C7.3455 13.1398 7.94368 12.5385 7.94378 11.7982V10.4525H6.5769ZM10.41 6.65442C9.66776 6.6582 9.06876 7.26234 9.07128 8.0046C9.0738 8.74686 9.6769 9.3469 10.4192 9.34564C11.1614 9.3444 11.7625 8.74232 11.7625 8.00004C11.7598 7.25508 11.155 6.65304 10.41 6.65442ZM6.59128 6.6544C6.11052 6.65184 5.66494 6.90596 5.42234 7.321C5.17974 7.73606 5.177 8.249 5.41514 8.66664C5.6533 9.08426 6.09616 9.3431 6.5769 9.34566H7.94378V6.6544H6.59128ZM9.05628 2.8563V5.54818H10.4088C11.1322 5.55154 11.7291 4.9828 11.7606 4.26004V4.53192V4.20192C11.7576 3.45784 11.1535 2.8563 10.4094 2.8563H9.05628ZM6.59002 2.8563C6.10928 2.8563 5.66506 3.11276 5.42468 3.5291C5.1843 3.94544 5.1843 4.4584 5.42468 4.87474C5.66506 5.29106 6.10928 5.54754 6.59002 5.54754H7.94378V2.8563H6.59002Z" fill="#516CF7"/>
</g>
</g>
</g>
</g>
</svg>
